<mxfile host="app.diagrams.net" agent="Mozilla/5.0 (Windows NT 10.0; Win64; x64) AppleWebKit/537.36 (KHTML, like Gecko) Chrome/136.0.0.0 Safari/537.36" version="27.0.6">
  <diagram name="Page-1" id="bSPk5QEFZe0DNpUuzP-G">
    <mxGraphModel dx="1292" dy="648" grid="1" gridSize="10" guides="1" tooltips="1" connect="1" arrows="1" fold="1" page="1" pageScale="1" pageWidth="2336" pageHeight="1654" math="0" shadow="0">
      <root>
        <mxCell id="0" />
        <mxCell id="1" parent="0" />
        <mxCell id="isttgihJ16M6E-SwgYfk-35" value="" style="group" parent="1" vertex="1" connectable="0">
          <mxGeometry x="1830" y="140" width="410" height="340" as="geometry" />
        </mxCell>
        <mxCell id="isttgihJ16M6E-SwgYfk-24" value="" style="rounded=1;whiteSpace=wrap;html=1;movable=1;resizable=1;rotatable=1;deletable=1;editable=1;locked=0;connectable=1;" parent="isttgihJ16M6E-SwgYfk-35" vertex="1">
          <mxGeometry width="410" height="290" as="geometry" />
        </mxCell>
        <mxCell id="isttgihJ16M6E-SwgYfk-34" value="&lt;b&gt;&lt;font style=&quot;font-size: 18px;&quot;&gt;BMS&lt;/font&gt;&lt;/b&gt;" style="text;html=1;align=center;verticalAlign=middle;resizable=0;points=[];autosize=1;strokeColor=none;fillColor=none;" parent="isttgihJ16M6E-SwgYfk-35" vertex="1">
          <mxGeometry x="170" y="300" width="60" height="40" as="geometry" />
        </mxCell>
        <mxCell id="5pG6PvoMtfomrh9TZ75T-5" value="" style="rounded=1;whiteSpace=wrap;html=1;movable=1;resizable=1;rotatable=1;deletable=1;editable=1;locked=0;connectable=1;" parent="1" vertex="1">
          <mxGeometry x="1040" y="60" width="600" height="450.82" as="geometry" />
        </mxCell>
        <mxCell id="5pG6PvoMtfomrh9TZ75T-6" value="&lt;b&gt;&lt;font style=&quot;font-size: 18px;&quot;&gt;Real-time Operation&lt;/font&gt;&lt;/b&gt;" style="text;html=1;align=center;verticalAlign=middle;resizable=0;points=[];autosize=1;strokeColor=none;fillColor=none;" parent="1" vertex="1">
          <mxGeometry x="1240.005" y="530.0006779661016" width="190" height="40" as="geometry" />
        </mxCell>
        <mxCell id="5pG6PvoMtfomrh9TZ75T-55" value="" style="edgeStyle=orthogonalEdgeStyle;rounded=0;orthogonalLoop=1;jettySize=auto;html=1;" parent="1" source="5pG6PvoMtfomrh9TZ75T-32" target="5pG6PvoMtfomrh9TZ75T-37" edge="1">
          <mxGeometry relative="1" as="geometry" />
        </mxCell>
        <mxCell id="5pG6PvoMtfomrh9TZ75T-56" style="edgeStyle=orthogonalEdgeStyle;rounded=0;orthogonalLoop=1;jettySize=auto;html=1;" parent="1" source="5pG6PvoMtfomrh9TZ75T-32" target="5pG6PvoMtfomrh9TZ75T-35" edge="1">
          <mxGeometry relative="1" as="geometry">
            <Array as="points">
              <mxPoint x="1540" y="320" />
            </Array>
          </mxGeometry>
        </mxCell>
        <mxCell id="isttgihJ16M6E-SwgYfk-6" value="" style="edgeStyle=orthogonalEdgeStyle;rounded=0;orthogonalLoop=1;jettySize=auto;html=1;" parent="1" source="5pG6PvoMtfomrh9TZ75T-32" target="isttgihJ16M6E-SwgYfk-5" edge="1">
          <mxGeometry relative="1" as="geometry">
            <Array as="points">
              <mxPoint x="1340" y="208" />
              <mxPoint x="1310" y="208" />
              <mxPoint x="1310" y="130" />
            </Array>
          </mxGeometry>
        </mxCell>
        <mxCell id="isttgihJ16M6E-SwgYfk-17" style="edgeStyle=orthogonalEdgeStyle;rounded=0;orthogonalLoop=1;jettySize=auto;html=1;entryX=0.5;entryY=1;entryDx=0;entryDy=0;" parent="1" source="5pG6PvoMtfomrh9TZ75T-32" target="5pG6PvoMtfomrh9TZ75T-33" edge="1">
          <mxGeometry relative="1" as="geometry" />
        </mxCell>
        <mxCell id="isttgihJ16M6E-SwgYfk-19" style="edgeStyle=orthogonalEdgeStyle;rounded=0;orthogonalLoop=1;jettySize=auto;html=1;entryX=0.5;entryY=0;entryDx=0;entryDy=0;" parent="1" source="5pG6PvoMtfomrh9TZ75T-32" target="isttgihJ16M6E-SwgYfk-18" edge="1">
          <mxGeometry relative="1" as="geometry" />
        </mxCell>
        <mxCell id="isttgihJ16M6E-SwgYfk-21" style="edgeStyle=orthogonalEdgeStyle;rounded=0;orthogonalLoop=1;jettySize=auto;html=1;entryX=1;entryY=0.5;entryDx=0;entryDy=0;" parent="1" source="5pG6PvoMtfomrh9TZ75T-32" target="isttgihJ16M6E-SwgYfk-20" edge="1">
          <mxGeometry relative="1" as="geometry" />
        </mxCell>
        <mxCell id="5pG6PvoMtfomrh9TZ75T-32" value="&lt;font style=&quot;font-size: 14px;&quot;&gt;&lt;b&gt;MCU&lt;/b&gt;&lt;/font&gt;" style="rounded=0;whiteSpace=wrap;html=1;fillColor=#f8cecc;strokeColor=#b85450;movable=1;resizable=1;rotatable=1;deletable=1;editable=1;locked=0;connectable=1;" parent="1" vertex="1">
          <mxGeometry x="1280" y="245.41000000000005" width="120" height="80" as="geometry" />
        </mxCell>
        <mxCell id="5pG6PvoMtfomrh9TZ75T-33" value="&lt;font style=&quot;font-size: 14px;&quot;&gt;&lt;b&gt;Motors (4)&lt;/b&gt;&lt;/font&gt;" style="rounded=0;whiteSpace=wrap;html=1;fillColor=#ffe6cc;strokeColor=#d79b00;movable=1;resizable=1;rotatable=1;deletable=1;editable=1;locked=0;connectable=1;" parent="1" vertex="1">
          <mxGeometry x="1090" y="165.41000000000005" width="120" height="80" as="geometry" />
        </mxCell>
        <mxCell id="5pG6PvoMtfomrh9TZ75T-35" value="&lt;span style=&quot;font-size: 14px;&quot;&gt;&lt;b&gt;Optical Proximity Sensor (IR Drop Sensors) (6)&lt;/b&gt;&lt;/span&gt;" style="rounded=0;whiteSpace=wrap;html=1;fillColor=#ffe6cc;strokeColor=#d79b00;movable=1;resizable=1;rotatable=1;deletable=1;editable=1;locked=0;connectable=1;" parent="1" vertex="1">
          <mxGeometry x="1480" y="360.00000000000006" width="120" height="80" as="geometry" />
        </mxCell>
        <mxCell id="5pG6PvoMtfomrh9TZ75T-37" value="&lt;span style=&quot;font-family: Arial, sans-serif; font-size: 14px; font-weight: 700; text-align: left;&quot;&gt;IR-sidesensor (for wall detection, optional)&lt;/span&gt;" style="rounded=0;whiteSpace=wrap;html=1;fillColor=#ffe6cc;strokeColor=#d79b00;movable=1;resizable=1;rotatable=1;deletable=1;editable=1;locked=0;connectable=1;" parent="1" vertex="1">
          <mxGeometry x="1460" y="130.00000000000006" width="120" height="80" as="geometry" />
        </mxCell>
        <mxCell id="5pG6PvoMtfomrh9TZ75T-59" style="edgeStyle=orthogonalEdgeStyle;rounded=0;orthogonalLoop=1;jettySize=auto;html=1;strokeWidth=4;" parent="1" source="5pG6PvoMtfomrh9TZ75T-8" target="5pG6PvoMtfomrh9TZ75T-32" edge="1">
          <mxGeometry relative="1" as="geometry">
            <Array as="points">
              <mxPoint x="861" y="270" />
              <mxPoint x="861" y="300" />
            </Array>
          </mxGeometry>
        </mxCell>
        <mxCell id="isttgihJ16M6E-SwgYfk-4" value="" style="group;movable=0;resizable=0;rotatable=0;deletable=0;editable=0;locked=1;connectable=0;" parent="1" vertex="1" connectable="0">
          <mxGeometry x="37" y="670" width="790" height="440" as="geometry" />
        </mxCell>
        <mxCell id="isttgihJ16M6E-SwgYfk-1" value="" style="rounded=1;whiteSpace=wrap;html=1;" parent="isttgihJ16M6E-SwgYfk-4" vertex="1">
          <mxGeometry width="790" height="380" as="geometry" />
        </mxCell>
        <mxCell id="isttgihJ16M6E-SwgYfk-3" value="&lt;b&gt;&lt;font style=&quot;font-size: 18px;&quot;&gt;Robotic Arm&lt;/font&gt;&lt;/b&gt;" style="text;html=1;align=center;verticalAlign=middle;resizable=0;points=[];autosize=1;strokeColor=none;fillColor=none;" parent="isttgihJ16M6E-SwgYfk-4" vertex="1">
          <mxGeometry x="330" y="400" width="130" height="40" as="geometry" />
        </mxCell>
        <mxCell id="isttgihJ16M6E-SwgYfk-5" value="&lt;font style=&quot;font-size: 14px;&quot;&gt;&lt;b&gt;Limit Switch (2)&lt;/b&gt;&lt;/font&gt;" style="rounded=0;whiteSpace=wrap;html=1;fillColor=#ffe6cc;strokeColor=#d79b00;movable=1;resizable=1;rotatable=1;deletable=1;editable=1;locked=0;connectable=1;" parent="1" vertex="1">
          <mxGeometry x="1260" y="85.41" width="120" height="80" as="geometry" />
        </mxCell>
        <mxCell id="5pG6PvoMtfomrh9TZ75T-1" value="" style="rounded=1;whiteSpace=wrap;html=1;movable=0;resizable=0;rotatable=0;deletable=0;editable=0;locked=1;connectable=0;" parent="1" vertex="1">
          <mxGeometry x="15" y="50" width="810" height="500.70588235294116" as="geometry" />
        </mxCell>
        <mxCell id="isttgihJ16M6E-SwgYfk-8" style="edgeStyle=orthogonalEdgeStyle;rounded=0;orthogonalLoop=1;jettySize=auto;html=1;strokeWidth=4;" parent="1" source="5pG6PvoMtfomrh9TZ75T-8" target="isttgihJ16M6E-SwgYfk-1" edge="1">
          <mxGeometry relative="1" as="geometry" />
        </mxCell>
        <mxCell id="isttgihJ16M6E-SwgYfk-51" style="edgeStyle=orthogonalEdgeStyle;rounded=0;orthogonalLoop=1;jettySize=auto;html=1;entryX=0.5;entryY=1;entryDx=0;entryDy=0;" parent="1" source="5pG6PvoMtfomrh9TZ75T-8" target="5pG6PvoMtfomrh9TZ75T-21" edge="1">
          <mxGeometry relative="1" as="geometry" />
        </mxCell>
        <mxCell id="isttgihJ16M6E-SwgYfk-52" style="edgeStyle=orthogonalEdgeStyle;rounded=0;orthogonalLoop=1;jettySize=auto;html=1;entryX=0.5;entryY=1;entryDx=0;entryDy=0;" parent="1" source="5pG6PvoMtfomrh9TZ75T-8" target="5pG6PvoMtfomrh9TZ75T-22" edge="1">
          <mxGeometry relative="1" as="geometry" />
        </mxCell>
        <mxCell id="isttgihJ16M6E-SwgYfk-53" style="edgeStyle=orthogonalEdgeStyle;rounded=0;orthogonalLoop=1;jettySize=auto;html=1;entryX=0.5;entryY=0;entryDx=0;entryDy=0;" parent="1" source="5pG6PvoMtfomrh9TZ75T-8" target="isttgihJ16M6E-SwgYfk-50" edge="1">
          <mxGeometry relative="1" as="geometry" />
        </mxCell>
        <mxCell id="isttgihJ16M6E-SwgYfk-54" style="edgeStyle=orthogonalEdgeStyle;rounded=0;orthogonalLoop=1;jettySize=auto;html=1;entryX=1;entryY=0.5;entryDx=0;entryDy=0;" parent="1" source="5pG6PvoMtfomrh9TZ75T-8" target="5pG6PvoMtfomrh9TZ75T-11" edge="1">
          <mxGeometry relative="1" as="geometry" />
        </mxCell>
        <mxCell id="isttgihJ16M6E-SwgYfk-55" style="edgeStyle=orthogonalEdgeStyle;rounded=0;orthogonalLoop=1;jettySize=auto;html=1;entryX=0.5;entryY=1;entryDx=0;entryDy=0;" parent="1" source="5pG6PvoMtfomrh9TZ75T-8" target="5pG6PvoMtfomrh9TZ75T-20" edge="1">
          <mxGeometry relative="1" as="geometry">
            <Array as="points">
              <mxPoint x="410" y="230" />
              <mxPoint x="190" y="230" />
            </Array>
          </mxGeometry>
        </mxCell>
        <mxCell id="isttgihJ16M6E-SwgYfk-56" style="edgeStyle=orthogonalEdgeStyle;rounded=0;orthogonalLoop=1;jettySize=auto;html=1;entryX=1;entryY=0.5;entryDx=0;entryDy=0;" parent="1" source="5pG6PvoMtfomrh9TZ75T-8" target="isttgihJ16M6E-SwgYfk-49" edge="1">
          <mxGeometry relative="1" as="geometry" />
        </mxCell>
        <mxCell id="isttgihJ16M6E-SwgYfk-57" style="edgeStyle=orthogonalEdgeStyle;rounded=0;orthogonalLoop=1;jettySize=auto;html=1;entryX=0;entryY=0.5;entryDx=0;entryDy=0;" parent="1" source="5pG6PvoMtfomrh9TZ75T-8" target="isttgihJ16M6E-SwgYfk-50" edge="1">
          <mxGeometry relative="1" as="geometry" />
        </mxCell>
        <mxCell id="5pG6PvoMtfomrh9TZ75T-8" value="&lt;font style=&quot;font-size: 14px;&quot;&gt;&lt;b&gt;Raspberry Pi 5&lt;/b&gt;&lt;/font&gt;" style="rounded=0;whiteSpace=wrap;html=1;fillColor=#f8cecc;strokeColor=#b85450;movable=1;resizable=1;rotatable=1;deletable=1;editable=1;locked=0;connectable=1;" parent="1" vertex="1">
          <mxGeometry x="350" y="245.41" width="120" height="80" as="geometry" />
        </mxCell>
        <mxCell id="5pG6PvoMtfomrh9TZ75T-11" value="&lt;font style=&quot;font-size: 14px;&quot;&gt;&lt;b&gt;Debug Interfaces (USB-C)&lt;/b&gt;&lt;/font&gt;" style="rounded=0;whiteSpace=wrap;html=1;fillColor=#dae8fc;strokeColor=#6c8ebf;" parent="1" vertex="1">
          <mxGeometry x="70" y="255.41" width="145" height="60" as="geometry" />
        </mxCell>
        <mxCell id="5pG6PvoMtfomrh9TZ75T-20" value="&lt;font style=&quot;font-size: 14px;&quot;&gt;&lt;b&gt;LIDAR&lt;/b&gt;&lt;/font&gt;" style="rounded=0;whiteSpace=wrap;html=1;fillColor=#f8cecc;strokeColor=#b85450;" parent="1" vertex="1">
          <mxGeometry x="130" y="115.41" width="120" height="60" as="geometry" />
        </mxCell>
        <mxCell id="5pG6PvoMtfomrh9TZ75T-21" value="&lt;font style=&quot;font-size: 14px;&quot;&gt;&lt;b&gt;Camera + Depth Sensor + IR camera&lt;/b&gt;&lt;/font&gt;" style="rounded=0;whiteSpace=wrap;html=1;fillColor=#f8cecc;strokeColor=#b85450;" parent="1" vertex="1">
          <mxGeometry x="340" y="115.41" width="120" height="60" as="geometry" />
        </mxCell>
        <mxCell id="5pG6PvoMtfomrh9TZ75T-22" value="&lt;font style=&quot;font-size: 14px;&quot;&gt;&lt;b&gt;Microphone + Speaker&lt;/b&gt;&lt;/font&gt;" style="rounded=0;whiteSpace=wrap;html=1;fillColor=#f8cecc;strokeColor=#b85450;" parent="1" vertex="1">
          <mxGeometry x="550" y="115.41" width="120" height="60" as="geometry" />
        </mxCell>
        <mxCell id="5pG6PvoMtfomrh9TZ75T-58" value="&lt;font style=&quot;font-size: 14px;&quot;&gt;SWD (OTA) + Communication&lt;/font&gt;" style="text;html=1;align=center;verticalAlign=middle;resizable=0;points=[];autosize=1;strokeColor=none;fillColor=none;fontStyle=1" parent="1" vertex="1">
          <mxGeometry x="825" y="240" width="210" height="30" as="geometry" />
        </mxCell>
        <mxCell id="5pG6PvoMtfomrh9TZ75T-2" value="&lt;b&gt;&lt;font style=&quot;font-size: 18px;&quot;&gt;Linux/Navigation/Mapping/Connectivity&lt;/font&gt;&lt;/b&gt;" style="text;html=1;align=center;verticalAlign=middle;resizable=0;points=[];autosize=1;strokeColor=none;fillColor=none;" parent="1" vertex="1">
          <mxGeometry x="269.9975" y="570.0041176470588" width="360" height="40" as="geometry" />
        </mxCell>
        <mxCell id="isttgihJ16M6E-SwgYfk-11" value="" style="group" parent="1" vertex="1" connectable="0">
          <mxGeometry x="1090" y="630" width="490" height="310" as="geometry" />
        </mxCell>
        <mxCell id="isttgihJ16M6E-SwgYfk-9" value="" style="rounded=1;whiteSpace=wrap;html=1;movable=0;resizable=0;rotatable=0;deletable=0;editable=0;locked=1;connectable=0;" parent="isttgihJ16M6E-SwgYfk-11" vertex="1">
          <mxGeometry y="-10" width="490" height="260" as="geometry" />
        </mxCell>
        <mxCell id="isttgihJ16M6E-SwgYfk-10" value="&lt;b&gt;&lt;font style=&quot;font-size: 18px;&quot;&gt;Odometry Estimation&lt;/font&gt;&lt;/b&gt;" style="text;html=1;align=center;verticalAlign=middle;resizable=0;points=[];autosize=1;strokeColor=none;fillColor=none;" parent="isttgihJ16M6E-SwgYfk-11" vertex="1">
          <mxGeometry x="140" y="260" width="210" height="40" as="geometry" />
        </mxCell>
        <mxCell id="isttgihJ16M6E-SwgYfk-12" value="&lt;font style=&quot;font-size: 14px;&quot;&gt;&lt;b&gt;IMU (accelerometer + gyroscope +&amp;nbsp;&lt;/b&gt;&lt;/font&gt;&lt;span style=&quot;font-size: 14px;&quot;&gt;&lt;b&gt;Magnetometer)&lt;/b&gt;&lt;/span&gt;" style="rounded=0;whiteSpace=wrap;html=1;fillColor=#ffe6cc;strokeColor=#d79b00;movable=1;resizable=1;rotatable=1;deletable=1;editable=1;locked=0;connectable=1;" parent="isttgihJ16M6E-SwgYfk-11" vertex="1">
          <mxGeometry x="40" y="70" width="120" height="80" as="geometry" />
        </mxCell>
        <mxCell id="isttgihJ16M6E-SwgYfk-16" value="&lt;font style=&quot;font-size: 14px;&quot;&gt;&lt;b&gt;Wheel Encoders (2)&lt;/b&gt;&lt;/font&gt;" style="rounded=0;whiteSpace=wrap;html=1;fillColor=#ffe6cc;strokeColor=#d79b00;movable=1;resizable=1;rotatable=1;deletable=1;editable=1;locked=0;connectable=1;" parent="isttgihJ16M6E-SwgYfk-11" vertex="1">
          <mxGeometry x="330" y="70" width="120" height="80" as="geometry" />
        </mxCell>
        <mxCell id="isttgihJ16M6E-SwgYfk-22" value="&lt;span style=&quot;font-size: 14px;&quot;&gt;&lt;b&gt;Optical Mouse Sensor&lt;/b&gt;&lt;/span&gt;" style="rounded=0;whiteSpace=wrap;html=1;fillColor=#ffe6cc;strokeColor=#d79b00;movable=1;resizable=1;rotatable=1;deletable=1;editable=1;locked=0;connectable=1;" parent="isttgihJ16M6E-SwgYfk-11" vertex="1">
          <mxGeometry x="185" y="70" width="120" height="80" as="geometry" />
        </mxCell>
        <mxCell id="isttgihJ16M6E-SwgYfk-58" value="&lt;font style=&quot;font-size: 15px;&quot;&gt;Note: estimation will be done by the Pi. It will also use vSLAM and LiDAR for the estimation&lt;/font&gt;" style="text;html=1;align=center;verticalAlign=middle;whiteSpace=wrap;rounded=0;" parent="isttgihJ16M6E-SwgYfk-11" vertex="1">
          <mxGeometry x="48" y="182" width="382" height="30" as="geometry" />
        </mxCell>
        <mxCell id="isttgihJ16M6E-SwgYfk-14" value="" style="edgeStyle=orthogonalEdgeStyle;rounded=0;orthogonalLoop=1;jettySize=auto;html=1;entryX=0.485;entryY=1.001;entryDx=0;entryDy=0;entryPerimeter=0;" parent="1" source="isttgihJ16M6E-SwgYfk-9" target="5pG6PvoMtfomrh9TZ75T-5" edge="1">
          <mxGeometry relative="1" as="geometry" />
        </mxCell>
        <mxCell id="isttgihJ16M6E-SwgYfk-18" value="&lt;span style=&quot;font-size: 14px;&quot;&gt;&lt;b&gt;Ultrasonic Sensor (facing down for carpet detection)&lt;/b&gt;&lt;/span&gt;" style="rounded=0;whiteSpace=wrap;html=1;fillColor=#ffe6cc;strokeColor=#d79b00;movable=1;resizable=1;rotatable=1;deletable=1;editable=1;locked=0;connectable=1;" parent="1" vertex="1">
          <mxGeometry x="1280" y="380" width="120" height="80" as="geometry" />
        </mxCell>
        <mxCell id="isttgihJ16M6E-SwgYfk-20" value="&lt;font style=&quot;font-size: 14px;&quot;&gt;&lt;b&gt;Piezoelectric Sensor (dirt detection)&lt;/b&gt;&lt;/font&gt;" style="rounded=0;whiteSpace=wrap;html=1;fillColor=#ffe6cc;strokeColor=#d79b00;movable=1;resizable=1;rotatable=1;deletable=1;editable=1;locked=0;connectable=1;" parent="1" vertex="1">
          <mxGeometry x="1110" y="350" width="120" height="80" as="geometry" />
        </mxCell>
        <mxCell id="isttgihJ16M6E-SwgYfk-27" value="&lt;span style=&quot;font-family: Arial, sans-serif; font-size: 14px; font-weight: 700; text-align: left;&quot;&gt;&amp;nbsp;18650 Cells&lt;/span&gt;" style="rounded=0;whiteSpace=wrap;html=1;fillColor=#d5e8d4;strokeColor=#82b366;movable=1;resizable=1;rotatable=1;deletable=1;editable=1;locked=0;connectable=1;" parent="1" vertex="1">
          <mxGeometry x="1885" y="175.41" width="120" height="80" as="geometry" />
        </mxCell>
        <mxCell id="isttgihJ16M6E-SwgYfk-28" value="&lt;span style=&quot;font-family: Arial, sans-serif; font-size: 14px; font-weight: 700; text-align: left;&quot;&gt;Thermistor&lt;/span&gt;" style="rounded=0;whiteSpace=wrap;html=1;fillColor=#d5e8d4;strokeColor=#82b366;movable=1;resizable=1;rotatable=1;deletable=1;editable=1;locked=0;connectable=1;" parent="1" vertex="1">
          <mxGeometry x="2065" y="175.41" width="120" height="80" as="geometry" />
        </mxCell>
        <mxCell id="isttgihJ16M6E-SwgYfk-29" value="&lt;span style=&quot;font-family: Arial, sans-serif; font-size: 14px; font-weight: 700; text-align: left;&quot;&gt;Voltage Sense + Cell Balancing&lt;/span&gt;" style="rounded=0;whiteSpace=wrap;html=1;fillColor=#d5e8d4;strokeColor=#82b366;movable=1;resizable=1;rotatable=1;deletable=1;editable=1;locked=0;connectable=1;" parent="1" vertex="1">
          <mxGeometry x="1885" y="300" width="120" height="80" as="geometry" />
        </mxCell>
        <mxCell id="isttgihJ16M6E-SwgYfk-30" value="&lt;span style=&quot;font-family: Arial, sans-serif; font-size: 14px; font-weight: 700; text-align: left;&quot;&gt;Current Sense (Optional)&lt;/span&gt;" style="rounded=0;whiteSpace=wrap;html=1;fillColor=#d5e8d4;strokeColor=#82b366;movable=1;resizable=1;rotatable=1;deletable=1;editable=1;locked=0;connectable=1;" parent="1" vertex="1">
          <mxGeometry x="2065" y="300" width="120" height="80" as="geometry" />
        </mxCell>
        <mxCell id="isttgihJ16M6E-SwgYfk-42" value="&lt;span style=&quot;font-size: 14px;&quot;&gt;&lt;b&gt;3 Servo Motors (Rotation can be done by the Roomba)&lt;/b&gt;&lt;/span&gt;" style="rounded=0;whiteSpace=wrap;html=1;fillColor=#ffe6cc;strokeColor=#d79b00;movable=1;resizable=1;rotatable=1;deletable=1;editable=1;locked=0;connectable=1;" parent="1" vertex="1">
          <mxGeometry x="169" y="780" width="144" height="80" as="geometry" />
        </mxCell>
        <mxCell id="isttgihJ16M6E-SwgYfk-44" value="&lt;span style=&quot;font-size: 14px;&quot;&gt;&lt;b&gt;Limit Switches&lt;/b&gt;&lt;/span&gt;" style="rounded=0;whiteSpace=wrap;html=1;fillColor=#ffe6cc;strokeColor=#d79b00;movable=1;resizable=1;rotatable=1;deletable=1;editable=1;locked=0;connectable=1;" parent="1" vertex="1">
          <mxGeometry x="580" y="787" width="145" height="80" as="geometry" />
        </mxCell>
        <mxCell id="isttgihJ16M6E-SwgYfk-45" value="&lt;font style=&quot;font-size: 14px;&quot;&gt;Note: The position of the arm can be calculated using inverse kinematics with the data coming from the servo motors. We need a fixed starting location. If starting position is not known, we need an additional sensor&lt;/font&gt;" style="text;html=1;align=center;verticalAlign=middle;whiteSpace=wrap;rounded=0;" parent="1" vertex="1">
          <mxGeometry x="257.5" y="930" width="385" height="80" as="geometry" />
        </mxCell>
        <mxCell id="isttgihJ16M6E-SwgYfk-48" style="edgeStyle=orthogonalEdgeStyle;rounded=0;orthogonalLoop=1;jettySize=auto;html=1;entryX=1;entryY=0.5;entryDx=0;entryDy=0;" parent="1" source="isttgihJ16M6E-SwgYfk-24" target="5pG6PvoMtfomrh9TZ75T-5" edge="1">
          <mxGeometry relative="1" as="geometry" />
        </mxCell>
        <mxCell id="isttgihJ16M6E-SwgYfk-49" value="&lt;font style=&quot;font-size: 14px;&quot;&gt;&lt;b&gt;WiFi + Bluetooth Communication&lt;/b&gt;&lt;/font&gt;" style="rounded=0;whiteSpace=wrap;html=1;fillColor=#e1d5e7;strokeColor=#9673a6;" parent="1" vertex="1">
          <mxGeometry x="170" y="390" width="120" height="60" as="geometry" />
        </mxCell>
        <mxCell id="isttgihJ16M6E-SwgYfk-50" value="&lt;font style=&quot;font-size: 14px;&quot;&gt;&lt;b&gt;Cloud Server&lt;/b&gt;&lt;/font&gt;" style="rounded=0;whiteSpace=wrap;html=1;fillColor=#e1d5e7;strokeColor=#9673a6;" parent="1" vertex="1">
          <mxGeometry x="522.5" y="390" width="120" height="60" as="geometry" />
        </mxCell>
        <mxCell id="QPv_aC59u5xJP8YrM6bQ-1" value="&lt;span style=&quot;font-size: 14px;&quot;&gt;&lt;b&gt;Gripper&lt;/b&gt;&lt;/span&gt;" style="rounded=0;whiteSpace=wrap;html=1;fillColor=#ffe6cc;strokeColor=#d79b00;movable=1;resizable=1;rotatable=1;deletable=1;editable=1;locked=0;connectable=1;" vertex="1" parent="1">
          <mxGeometry x="359.5" y="780" width="145" height="80" as="geometry" />
        </mxCell>
      </root>
    </mxGraphModel>
  </diagram>
</mxfile>
